<svg width="373" height="48" viewBox="0 0 373 48" fill="none" xmlns="http://www.w3.org/2000/svg">
<path fill-rule="evenodd" clip-rule="evenodd" d="M0 20.3374C9.15792 37.0237 24.7007 48.0005 42.3339 48.0005C44.0213 48.0005 45.6896 47.9 47.3349 47.7035C47.7725 44.4071 48 41.0241 48 37.576C48 23.4738 44.1948 10.4617 37.7749 0L32.3872 20.3374H0Z" fill="white"/>
<path d="M72.7131 44.9893C72.47 46.3746 71.7579 47.0758 70.5769 47.0929C70.1774 47.0929 69.8127 46.9817 69.4827 46.7594C68.8053 46.3147 68.4667 45.5964 68.4667 44.6045L73.1821 9.28009C73.2168 9.00646 73.295 8.73282 73.4165 8.45919C73.7986 7.67249 74.4152 7.27915 75.2662 7.27915C75.5962 7.27915 75.9175 7.36466 76.2301 7.53568C76.9249 7.91192 77.2983 8.4934 77.3504 9.28009L75.631 23.0558C84.1934 13.6155 88.6917 8.71572 89.1259 8.35658C89.7337 7.758 90.3242 7.45872 90.8974 7.45872C91.2795 7.45872 91.6355 7.56133 91.9655 7.76656C92.6255 8.1599 92.9555 8.72427 92.9555 9.45966C92.9555 9.97273 92.7644 10.5114 92.3823 11.0758C91.9134 11.6744 86.5467 17.5319 76.2823 28.6482C77.4112 29.6402 78.679 30.7689 80.0858 32.0345C87.3804 38.5162 91.5313 42.253 92.5387 43.2449C93.1813 43.8948 93.5113 44.4933 93.5286 45.0406C93.5286 45.434 93.4071 45.8017 93.1639 46.1437C92.7471 46.7765 92.1913 47.0929 91.4966 47.0929C90.8887 47.0929 90.3242 46.9047 89.8032 46.5285C89.2127 46.118 84.0718 41.509 74.3805 32.7014C73.5642 39.0976 73.0084 43.1936 72.7131 44.9893Z" fill="white"/>
<path d="M127.5 42.9627C127.049 41.6116 126.823 39.8672 126.823 37.7295C126.823 36.1048 126.988 34.1637 127.318 31.9062C126.727 32.1969 126.076 32.4107 125.364 32.5475C125.156 33.5907 124.886 34.6511 124.556 35.7285C123.375 39.662 121.917 42.6549 120.18 44.7071C119.884 45.0492 119.528 45.3826 119.112 45.7076C117.635 46.8363 116.081 47.4007 114.448 47.4007C112.295 47.3836 110.758 46.4173 109.837 44.5019C108.309 46.366 106.207 47.3066 103.533 47.3237C102.925 47.3237 102.352 47.2468 101.813 47.0929C98.7564 46.2035 97.228 42.9028 97.228 37.1907C97.228 37.0881 97.228 36.977 97.228 36.8572C97.2627 34.0867 97.5667 31.453 98.1398 28.9561C98.6435 26.7841 99.4945 25.6896 100.693 25.6725C101.822 25.6896 102.404 26.3651 102.438 27.6991C102.438 27.9556 102.36 28.5371 102.204 29.4435C101.596 33.3257 101.292 36.1219 101.292 37.8321C101.292 41.3893 102.204 43.185 104.028 43.2192C106.476 43.0482 108.135 39.8929 109.003 33.7532C109.229 32.0943 109.394 30.2302 109.498 28.1608C109.516 27.9898 109.525 27.8872 109.525 27.853C109.663 26.5019 110.332 25.8178 111.531 25.8007C111.652 25.8007 111.774 25.8093 111.895 25.8264C112.764 25.9974 113.198 26.6815 113.198 27.8786C112.764 32.291 112.547 36.062 112.547 39.1917C112.547 39.6363 112.581 40.0895 112.651 40.5513C112.929 42.5865 113.684 43.604 114.917 43.604C116.289 43.604 117.566 42.5779 118.747 40.5257C119.667 38.9352 120.692 36.2416 121.821 32.4449C121.265 32.291 120.744 32.0858 120.258 31.8292C118.452 30.8202 117.549 29.2212 117.549 27.0321C117.549 26.3138 117.731 25.6297 118.096 24.9798C118.86 23.6801 120.076 23.0302 121.743 23.0302C122.594 23.0302 123.402 23.2525 124.166 23.6972C125.416 24.4497 126.041 25.5014 126.041 26.8525C126.041 27.3998 125.998 28.101 125.911 28.9561C126.589 28.614 127.5 28.0326 128.647 27.2117C128.977 26.9893 129.367 26.8696 129.819 26.8525C130.514 26.8696 131.113 27.0919 131.617 27.5195C131.894 27.7418 132.042 27.9727 132.059 28.2121C132.059 28.4003 131.999 28.6739 131.877 29.033C130.974 32.043 130.522 34.634 130.522 36.8059C130.522 38.1741 130.67 39.4824 130.965 40.7309C130.965 40.7651 130.974 40.8078 130.991 40.8591C131.391 42.2786 132.12 42.9884 133.18 42.9884C133.701 42.937 134.569 42.5608 135.785 41.8596C136.862 41.1584 137.661 40.8078 138.182 40.8078C138.442 40.8078 138.703 40.9019 138.963 41.09C139.415 41.415 139.641 41.7998 139.641 42.2444C139.571 43.2021 138.885 44.1855 137.582 45.1945C136.037 46.2891 134.387 46.8363 132.633 46.8363C132.233 46.8363 131.834 46.7936 131.434 46.7081C129.576 46.2976 128.265 45.0492 127.5 42.9627ZM120.675 27.2117C120.692 28.1694 121.3 28.8535 122.498 29.2639C122.672 28.3575 122.759 27.6734 122.759 27.2117C122.759 27.109 122.742 26.9979 122.707 26.8782C122.585 26.4164 122.264 26.1855 121.743 26.1855C121.656 26.1855 121.552 26.2026 121.43 26.2368C120.927 26.3737 120.675 26.6986 120.675 27.2117Z" fill="white"/>
<path d="M139.51 18.6948C139.528 18.6948 139.614 18.6948 139.771 18.6948C140.743 18.729 141.62 18.7461 142.402 18.7461L143.548 10.8193C143.618 10.2891 143.705 9.84446 143.809 9.48532C144.121 8.35658 144.755 7.79221 145.711 7.79221C145.902 7.79221 146.093 7.80931 146.284 7.84351C147.083 8.03164 147.482 8.77558 147.482 10.0753C147.482 10.4858 147.135 13.376 146.44 18.7461H149.176C149.644 18.7461 150.053 18.8402 150.4 19.0283C151.008 19.3874 151.312 19.9176 151.312 20.6188C151.312 20.9266 151.234 21.2174 151.077 21.491C150.678 22.1409 150.027 22.4658 149.123 22.4658H145.893C144.538 32.7271 143.861 38.4819 143.861 39.7304C143.861 40.5171 144.026 41.2525 144.356 41.9366C144.842 42.9627 145.485 43.4758 146.284 43.4758C146.475 43.4758 146.675 43.4501 146.883 43.3988C147.352 43.2791 148.021 42.8857 148.889 42.2188C149.74 41.5518 150.452 41.2183 151.025 41.2183C151.268 41.2183 151.503 41.2696 151.729 41.3722C152.354 41.68 152.667 42.1503 152.667 42.7831C152.614 43.6724 151.946 44.596 150.661 45.5537C149.097 46.6653 147.439 47.2211 145.685 47.2211C143.965 47.204 142.558 46.4943 141.464 45.0919C140.353 43.604 139.797 41.7313 139.797 39.4739C139.797 38.9779 140.483 33.3086 141.855 22.4658H139.51C139.406 22.4658 139.302 22.4658 139.198 22.4658C137.999 22.3632 137.4 21.7475 137.4 20.6188C137.4 20.311 137.452 20.0288 137.556 19.7722C137.869 19.0539 138.52 18.6948 139.51 18.6948Z" fill="white"/>
<path d="M163.218 26.9551C163.53 26.0658 164.173 25.6126 165.145 25.5955H165.302C165.684 25.6126 166.066 25.6554 166.448 25.7238C169.262 26.1855 171.554 27.6478 173.326 30.1105C174.993 32.4192 175.827 35.0359 175.827 37.9603C175.827 40.748 175.028 43.1936 173.43 45.2971C173.395 45.3313 173.36 45.3826 173.326 45.4511C172.666 46.2549 171.945 46.6568 171.163 46.6568C170.885 46.6568 170.608 46.5627 170.33 46.3746C169.791 45.9812 169.522 45.4511 169.522 44.7841C169.522 44.5617 169.566 44.3309 169.652 44.0914C169.652 44.0914 169.748 43.9119 169.939 43.5527C171.207 41.5347 171.849 39.5423 171.867 37.5755C171.867 37.3532 171.858 37.1223 171.841 36.8829C171.667 34.6938 170.799 32.8211 169.236 31.2649C168.211 30.2387 167.282 29.7171 166.448 29.7C166.274 30.367 165.962 31.5898 165.51 33.3684C164.555 37.2848 163.608 40.2777 162.67 42.347C161.229 45.528 158.806 47.1356 155.402 47.1698C153.943 47.1698 152.736 46.6739 151.781 45.6819C150.304 44.1427 149.566 41.6886 149.566 38.3195C149.566 37.1907 149.792 34.976 150.244 31.6753C150.469 30.0677 150.626 28.8962 150.713 28.1608C150.73 27.9727 150.756 27.7846 150.791 27.5965C151.069 25.9718 151.772 25.1594 152.901 25.1594C153.127 25.1594 153.344 25.1851 153.552 25.2364C154.299 25.4416 154.673 26.1684 154.673 27.4169C154.673 27.9128 154.586 28.9817 154.412 30.6235C153.874 35.4805 153.604 38.4991 153.604 39.6791C153.604 40.4829 153.769 41.2268 154.099 41.9109C154.586 42.9199 155.228 43.4245 156.027 43.4245C157.121 43.4074 158.111 42.6292 158.997 41.09C159.709 39.8245 160.499 37.5328 161.368 34.215C161.403 34.0611 162.019 31.6411 163.218 26.9551ZM151.703 20.7214C151.703 20.4136 151.781 20.1143 151.937 19.8235C152.284 19.1566 152.84 18.8231 153.604 18.8231C153.917 18.8231 154.221 18.9 154.516 19.0539C155.176 19.4131 155.506 19.9689 155.506 20.7214C155.506 21.0292 155.428 21.3285 155.272 21.6193C154.924 22.2691 154.369 22.5941 153.604 22.5941C153.274 22.5941 152.97 22.5171 152.693 22.3632C152.033 22.0041 151.703 21.4568 151.703 20.7214Z" fill="white"/>
<path d="M220.141 16.4373C219.759 15.5138 219.29 14.6758 218.734 13.9233C217.379 12.1618 215.886 11.281 214.253 11.281C213.194 11.281 212.126 11.6658 211.049 12.4354C208.999 13.872 207.237 16.3689 205.76 19.9262C204.215 23.586 203.442 27.1775 203.442 30.7005C203.442 34.0867 203.997 36.9086 205.109 39.166C206.342 41.6629 208.027 42.9114 210.163 42.9114C211.153 42.9114 212.256 42.4667 213.472 41.5774C215.382 40.158 217.023 38.0971 218.396 35.395C218.43 35.2924 218.482 35.1898 218.552 35.0872C218.951 34.4202 219.533 34.0867 220.297 34.0867C220.662 34.0867 221.009 34.1722 221.339 34.3432C222.034 34.7366 222.381 35.3352 222.381 36.139C222.381 36.4297 222.295 36.7632 222.121 37.1394C221.009 39.4653 219.672 41.4406 218.109 43.0653C215.504 45.7503 212.708 47.0929 209.72 47.0929C209.338 47.0929 208.956 47.0672 208.574 47.0159C205.899 46.6397 203.685 45.0748 201.931 42.3214C199.985 39.2601 199.013 35.4292 199.013 30.8288C199.013 28.0924 199.412 25.3219 200.211 22.5171C201.462 18.1048 203.39 14.4449 205.995 11.5376C208.722 8.5276 211.605 7.02261 214.644 7.02261C215.947 7.02261 217.188 7.3048 218.369 7.86917C220.87 9.10052 222.746 11.4179 223.997 14.8212C224.136 15.1461 224.205 15.4625 224.205 15.7703C224.205 16.1295 224.11 16.4715 223.919 16.7965C223.502 17.4806 222.902 17.8226 222.121 17.8226C221.322 17.7713 220.662 17.3095 220.141 16.4373Z" fill="white"/>
<path d="M239.888 47.0929C235.703 46.9218 232.602 44.4078 230.588 39.5508C229.094 35.891 228.347 31.4102 228.347 26.1086C228.347 25.8349 228.365 25.4843 228.399 25.0568C228.643 21.4482 229.32 18.139 230.432 15.129C232.238 10.272 234.791 7.84351 238.091 7.84351C238.264 7.84351 238.447 7.85207 238.638 7.86917C241.643 8.05729 243.145 9.77605 243.145 13.0255C243.145 16.5656 241.599 20.4991 238.508 24.8259C236.545 27.5794 234.487 29.8112 232.333 31.5214C232.924 34.7708 233.575 37.2078 234.287 38.8325C235.607 41.8425 237.57 43.3475 240.175 43.3475C240.349 43.3475 240.531 43.3304 240.722 43.2962C241.295 43.1936 242.094 42.7831 243.119 42.0648C244.109 41.3979 244.882 41.0644 245.437 41.0644C245.681 41.0644 245.915 41.1413 246.141 41.2952C246.644 41.6373 246.896 42.099 246.896 42.6805C246.862 43.5698 246.219 44.4848 244.968 45.4254C243.405 46.537 241.712 47.0929 239.888 47.0929ZM238.117 11.7171C237.092 11.7342 236.189 12.1703 235.407 13.0255C233.427 15.2316 232.342 19.8406 232.151 26.8525C233.193 25.8093 234.235 24.5779 235.277 23.1585C238.16 19.2763 239.602 16.0012 239.602 13.3333C239.602 13.1965 239.567 13.034 239.498 12.8459C239.22 12.0934 238.759 11.7171 238.117 11.7171Z" fill="white"/>
<path d="M265.862 34.9333C265.862 34.9333 266.557 32.214 267.946 26.7756C268.311 25.8862 268.954 25.433 269.874 25.4159C270.221 25.433 270.569 25.4672 270.916 25.5185C273.834 25.9803 276.205 27.4425 278.028 29.9052C279.73 32.214 280.581 34.8477 280.581 37.8064C280.547 39.6363 280.113 41.5005 279.279 43.3988C278.324 45.4682 277.203 46.5028 275.918 46.5028C275.571 46.5028 275.241 46.3575 274.928 46.0667C274.477 45.6392 274.251 45.1689 274.251 44.6558C274.251 44.4335 274.294 44.2026 274.381 43.9632C274.381 43.9632 274.485 43.7751 274.694 43.3988C275.944 41.4321 276.578 39.4397 276.596 37.4216C276.596 37.1822 276.587 36.9428 276.569 36.7033C276.396 34.4972 275.519 32.6245 273.938 31.0853C272.931 30.0592 272.01 29.5375 271.177 29.5204C271.003 30.1703 270.716 31.3504 270.317 33.0606C269.431 36.8915 268.58 39.6791 267.764 41.4235C265.975 45.1689 263.379 47.0416 259.974 47.0416C257.786 47.0245 256.188 45.9385 255.181 43.7836C254.955 44.0401 254.695 44.3052 254.399 44.5788C252.645 46.2207 250.874 47.0416 249.085 47.0416C247.973 47.0416 247.018 46.7594 246.219 46.195C244.43 44.9465 243.536 42.5009 243.536 38.8582C243.536 38.2767 243.57 37.661 243.64 37.0112C244.005 34.0867 244.942 31.4872 246.453 29.2126C248.312 26.425 250.535 25.0311 253.123 25.0311C254.252 25.0311 255.233 25.2449 256.067 25.6725C256.414 25.262 256.874 25.0482 257.447 25.0311C257.673 25.0311 257.89 25.0568 258.099 25.1081C258.845 25.3133 259.219 26.0402 259.219 27.2886C259.219 27.7846 259.132 28.8535 258.958 30.4953C258.42 35.3523 258.151 38.3708 258.151 39.5508C258.151 40.2007 258.264 40.8249 258.489 41.4235C258.924 42.6378 259.61 43.2449 260.548 43.2449C261.676 43.2278 262.675 42.5608 263.544 41.2439C264.273 40.081 265.046 37.9774 265.862 34.9333ZM252.81 40.6026C252.932 40.4145 253.079 40.0468 253.253 39.4995C253.965 37.1736 254.616 33.5736 255.207 28.6995C254.773 28.4943 254.373 28.3917 254.008 28.3917C253.679 28.3917 253.349 28.4345 253.019 28.52C251.421 28.9988 250.066 30.4867 248.954 32.9836C247.947 35.224 247.443 37.4558 247.443 39.6791C247.443 40.004 247.461 40.3119 247.496 40.6026C247.652 42.2615 248.182 43.091 249.085 43.091C249.571 43.091 250.161 42.8515 250.856 42.3727C251.673 41.8083 252.324 41.2183 252.81 40.6026Z" fill="white"/>
<path d="M284.463 32.3423C284.481 32.3081 284.515 32.2311 284.567 32.1114C286.148 28.5884 286.938 26.8098 286.938 26.7756C286.938 26.7584 286.947 26.7413 286.964 26.7242C287.312 25.852 287.972 25.4159 288.944 25.4159C289.291 25.433 289.648 25.4672 290.012 25.5185C292.93 25.9632 295.301 27.4254 297.124 29.9052C298.809 32.214 299.651 34.8477 299.651 37.8064C299.651 39.3627 299.339 40.996 298.714 42.7062C297.81 45.2202 296.577 46.4772 295.014 46.4772C294.736 46.4772 294.45 46.3831 294.155 46.195C293.599 45.7845 293.321 45.2544 293.321 44.6045C293.321 44.3822 293.373 44.1513 293.477 43.9119C293.477 43.9119 293.573 43.7408 293.764 43.3988C295.014 41.3979 295.648 39.4055 295.666 37.4216C295.666 37.1993 295.657 36.9684 295.639 36.729C295.466 34.5228 294.597 32.6416 293.034 31.0853C292.01 30.0592 291.089 29.5375 290.273 29.5204C289.978 30.0677 289.344 31.2905 288.371 33.1888C288.371 33.1888 288.362 33.2059 288.345 33.2402C288.328 33.2744 288.31 33.3 288.293 33.3171C287.546 34.7366 286.756 35.4463 285.922 35.4463C285.679 35.4463 285.427 35.395 285.167 35.2924C284.472 34.9846 284.125 34.4715 284.125 33.7532C284.125 33.4796 284.211 33.0948 284.385 32.5988C284.42 32.4791 284.446 32.3936 284.463 32.3423Z" fill="white"/>
<path d="M316.012 40.8591C316.012 40.8762 316.021 40.8933 316.038 40.9104C316.594 42.5009 317.332 43.2962 318.253 43.2962C318.791 43.262 319.659 42.8857 320.858 42.1675C321.935 41.4663 322.742 41.1157 323.281 41.1157C323.541 41.1157 323.802 41.2012 324.062 41.3722C324.514 41.7142 324.739 42.1076 324.739 42.5522C324.67 43.4929 323.984 44.4677 322.681 45.4767C321.118 46.5883 319.468 47.1442 317.732 47.1442C316.585 47.1442 315.595 46.8534 314.762 46.272C312.816 44.9038 311.844 42.1247 311.844 37.9347C311.844 37.1138 311.879 36.2501 311.948 35.3437C312.087 33.5993 312.226 32.5304 312.365 32.1371C311.219 32.7185 310.029 33.0093 308.796 33.0093C308.657 33.0093 308.448 32.9922 308.17 32.958C308.032 32.9409 307.927 32.9323 307.858 32.9323C307.806 32.9665 307.606 33.0777 307.259 33.2658C306.095 33.9328 305.157 34.2663 304.445 34.2663C304.237 34.2663 304.02 34.215 303.794 34.1124C303.255 33.8387 302.986 33.4454 302.986 32.9323C302.986 32.8468 302.995 32.7613 303.012 32.6758C303.064 32.3337 303.333 31.9746 303.82 31.5983C304.011 31.4615 304.15 31.3504 304.237 31.2649C303.16 30.29 302.613 28.9561 302.595 27.263C302.595 26.5276 302.778 25.8435 303.142 25.2107C303.907 23.8938 305.122 23.2354 306.79 23.2354C307.641 23.2354 308.448 23.4577 309.213 23.9024C310.463 24.672 311.088 25.7323 311.088 27.0834C311.088 27.8872 310.967 28.614 310.724 29.2639C310.984 29.1442 311.436 28.862 312.078 28.4174C313.398 27.528 314.327 27.0834 314.866 27.0834C315.578 27.1005 316.177 27.3143 316.663 27.7247C316.924 27.947 317.063 28.195 317.08 28.4687C317.08 28.5713 317.054 28.7252 317.002 28.9304C316.95 29.0843 316.924 29.1955 316.924 29.2639C316.021 32.2739 315.569 34.8563 315.569 37.0112C315.569 37.9518 315.682 39.0121 315.908 40.1922C315.96 40.5 315.995 40.7223 316.012 40.8591ZM307.806 27.4169C307.806 27.2972 307.788 27.1689 307.754 27.0321C307.597 26.6045 307.276 26.3908 306.79 26.3908C306.686 26.3908 306.573 26.4079 306.451 26.4421C305.965 26.596 305.722 26.9209 305.722 27.4169C305.739 28.2207 306.173 28.8364 307.024 29.2639C307.528 28.7337 307.788 28.1181 307.806 27.4169Z" fill="white"/>
<path d="M328.725 25.5442C329.333 25.5613 329.906 25.6212 330.445 25.7238C333.12 26.2881 334.761 28.3404 335.369 31.8805C335.699 31.6924 336.246 31.3418 337.01 30.8288C338.052 30.1276 338.842 29.777 339.381 29.777C339.641 29.777 339.893 29.8539 340.136 30.0079C340.675 30.3499 340.944 30.8116 340.944 31.3931C340.926 31.9746 340.544 32.6159 339.797 33.3171C338.738 34.2748 337.366 35.0872 335.681 35.7542C335.664 38.4221 335.256 40.6796 334.457 42.5266C333.154 45.5366 331.018 47.0416 328.048 47.0416C326.989 47.0416 325.929 46.7081 324.87 46.0411C322.421 44.4506 321.196 41.586 321.196 37.4473C321.196 34.9504 321.622 32.6758 322.473 30.6235C323.81 27.3912 325.894 25.6981 328.725 25.5442ZM331.982 36.4211C331.305 36.404 330.662 36.3356 330.054 36.2159C327.762 35.7371 326.285 34.5399 325.625 32.6245C325.174 34.0611 324.948 35.6259 324.948 37.319C324.948 38.1399 325.026 38.9352 325.182 39.7047C325.669 42.0477 326.728 43.2192 328.361 43.2192C328.899 43.2192 329.385 43.0568 329.82 42.7318C331.087 41.7741 331.808 39.6705 331.982 36.4211ZM331.591 32.9323C331.591 32.9323 331.713 32.9323 331.956 32.9323C331.695 30.5893 331.07 29.4093 330.08 29.3922C329.993 29.3922 329.906 29.4007 329.82 29.4178C329.438 29.5546 329.246 29.8368 329.246 30.2644C329.246 30.6406 329.307 31.0083 329.429 31.3675C329.811 32.4107 330.532 32.9323 331.591 32.9323Z" fill="white"/>
<path d="M342.194 43.9888C342.125 44.6045 341.942 45.1603 341.647 45.6563C341.144 46.4943 340.51 46.9133 339.745 46.9133C339.554 46.9133 339.372 46.8791 339.198 46.8107C338.33 46.4515 337.896 45.5451 337.896 44.0914L340.11 27.9043C340.145 27.5965 340.197 27.3057 340.266 27.0321C340.562 25.6126 341.23 24.9029 342.272 24.9029C342.498 24.9029 342.715 24.9285 342.924 24.9798C343.671 25.1851 344.044 25.9119 344.044 27.1603C344.044 27.6563 344.018 28.2207 343.966 28.8535C343.983 28.8193 344.009 28.7765 344.044 28.7252C345.347 26.4335 347.196 25.2877 349.593 25.2877C350.305 25.2877 351.043 25.4758 351.807 25.852C352.988 26.4506 353.735 27.2544 354.048 28.2634C355.298 26.4164 357.026 25.4843 359.232 25.4672C360.083 25.4672 360.874 25.7238 361.603 26.2368C362.662 26.9893 363.192 27.9984 363.192 29.2639C363.192 30.0848 363.183 31.3418 363.166 33.0349C363.131 34.8991 363.114 36.3271 363.114 37.319C363.114 38.0886 363.131 38.7556 363.166 39.32C363.374 42.005 364.208 43.3475 365.667 43.3475C365.841 43.3475 366.023 43.3304 366.214 43.2962C366.718 43.1765 367.456 42.7746 368.429 42.0905C369.384 41.4064 370.148 41.0644 370.721 41.0644C370.947 41.0644 371.164 41.1328 371.372 41.2696C371.911 41.5945 372.18 42.099 372.18 42.7831C372.18 42.8344 372.171 42.9028 372.154 42.9884C372.032 43.8093 371.312 44.6558 369.992 45.528C368.376 46.6054 366.77 47.1442 365.172 47.1442C363.869 47.1442 362.767 46.7936 361.863 46.0924C360.005 44.6216 359.076 41.3979 359.076 36.4211C359.076 36.1304 359.085 35.6601 359.102 35.0102C359.137 34.0696 359.154 33.2573 359.154 32.5732C359.154 30.7774 358.946 29.8625 358.529 29.8283C358.181 29.8283 357.773 30.0934 357.304 30.6235C356.089 32.0088 354.786 34.5656 353.397 38.2938L352.954 42.6805C352.85 43.8093 352.702 44.6729 352.511 45.2715C352.146 46.4344 351.451 47.0159 350.427 47.0159C350.149 47.0159 349.888 46.956 349.645 46.8363C348.898 46.4943 348.525 45.7845 348.525 44.7071C348.525 43.6639 348.768 41.7912 349.254 39.0891C349.914 35.3779 350.244 32.8383 350.244 31.4701C350.244 31.1109 350.21 30.7945 350.14 30.5209C350.001 29.9394 349.636 29.6487 349.046 29.6487C348.733 29.6658 348.386 29.8454 348.004 30.1874C346.719 31.3846 345.294 34.1722 343.731 38.5504C342.707 41.4064 342.194 43.2192 342.194 43.9888Z" fill="white"/>
</svg>
